<?xml version="1.0" encoding="UTF-8" standalone="no"?>
<svg
   width="707.70007pt"
   height="518.72095pt"
   viewBox="0 0 707.70007 518.72095"
   version="1.1"
   id="svg2483"
   sodipodi:docname="brand name.svg"
   inkscape:version="1.2.2 (732a01da63, 2022-12-09)"
   xmlns:inkscape="http://www.inkscape.org/namespaces/inkscape"
   xmlns:sodipodi="http://sodipodi.sourceforge.net/DTD/sodipodi-0.dtd"
   xmlns="http://www.w3.org/2000/svg"
   xmlns:svg="http://www.w3.org/2000/svg">
  <defs
     id="defs2487" />
  <sodipodi:namedview
     id="namedview2485"
     pagecolor="#a6a6a6"
     bordercolor="#000000"
     borderopacity="0.25"
     inkscape:showpageshadow="2"
     inkscape:pageopacity="0"
     inkscape:pagecheckerboard="0"
     inkscape:deskcolor="#d1d1d1"
     inkscape:document-units="pt"
     showgrid="false"
     inkscape:zoom="0.5671875"
     inkscape:cx="811.01928"
     inkscape:cy="305.01377"
     inkscape:window-width="1920"
     inkscape:window-height="1057"
     inkscape:window-x="-8"
     inkscape:window-y="-8"
     inkscape:window-maximized="1"
     inkscape:current-layer="svg2483" />
  <g
     id="g2609"
     transform="matrix(1.0100632,0,0,1.0100632,-16.195264,-0.22637942)">
    <g
       id="#d90f0fff"
       transform="matrix(1.0870364,0,0,1.0870364,-71.404959,-47.603306)">
      <path
         fill="#d90f0f"
         opacity="1"
         d="M 0,0 H 0.14 C 0.1,0.03 0.03,0.09 0,0.11 Z"
         id="path2420" />
      <path
         fill="#d90f0f"
         opacity="1"
         d="m 264.07785,77.528456 c 20.86,-26.08 58.04,-40.2 90.51,-30.01 19.57,6.2 36.07,20 48.02,36.45 17.52,-23.98 45.85,-42.58 76.57,-39.67 31.66,3.14 62.78,23.23 73.61,53.989996 8.95,24.109998 6.61,51.009998 -1.69,74.949998 57.96,0.04 115.93,0.01 173.89,0.01 -0.01,2.31 -0.02,4.62 -0.01,6.94 -58.81,-0.02 -117.63,0.03 -176.44,-0.03 -8.23,18.94 -20.29,36.42 -36.51,49.37 -35.46,30.54 -70.64,61.39 -105.81,92.25 -1.87,1.87 -5.05,1.95 -6.92,0.04 -36.44,-31.9 -72.81,-63.88 -109.55,-95.43 -14.38,-12.49 -25.38,-28.64 -32.63,-46.19 -58.89,-0.01 -117.77,-0.03 -176.66,0.01 -0.01,-2.32 -0.01,-4.65 -0.02,-6.97 57.94,0.05 115.88,-0.02 173.82,0.04 -10.86,-31.1 -11.07,-68.69 9.82,-95.749994 m 85.57,42.409994 c -5.16,29.86 -10.03,59.77 -15.28,89.62 -4.37,-20.05 -8.43,-40.17 -12.7,-60.25 -0.43,-3.27 -5.49,-3.81 -6.39,-0.57 -2.93,7.93 -5.67,15.94 -8.52,23.91 -17.41,0.19 -34.83,0.34 -52.25,0.57 0.75,2.37 1.62,4.71 2.68,6.96 16.05,-0.04 32.09,-0.04 48.14,-0.01 10.05,1.74 8.3,-11.52 12.28,-17.38 4.72,21.93 9.11,43.93 13.88,65.84 0.33,3.66 6.22,3.48 6.52,-0.1 5.27,-30.01 9.98,-60.12 15.45,-90.09 4.01,17.56 7.61,35.21 11.59,52.77 0.63,2.82 5.22,3.22 6.14,0.4 3.15,-7.65 5.96,-15.44 9.02,-23.13 2.01,17.55 22.4,11.17 34.54,10.71 2.14,-5.46 3.71,-11.13 5.96,-16.55 4.4,22.03 9.13,44.01 13.75,66 0.43,3.07 4.3,3.35 6.19,1.4 5.51,-30.71 10.45,-61.52 15.78,-92.26 3.76,17.75 7.64,35.48 11.56,53.19 0.46,3.05 5.14,3.51 6.23,0.64 3.09,-7.65 5.87,-15.43 9.02,-23.06 2.35,3.69 2.22,10.08 6.89,11.55 19.42,0.15 38.84,-0.03 58.26,0.09 0.84,-2.32 1.75,-4.62 2.71,-6.89 -19.57,-0.02 -39.13,0.04 -58.7,-0.03 -3.5,-5.39 -3.33,-15.67 -10.26,-17.12 -5.41,5.96 -6.51,15.2 -10.02,22.52 -4.56,-20.35 -8.46,-40.88 -13.58,-61.08 -1.98,-1.31 -5.33,-0.88 -5.75,1.83 -5.33,30.07 -10.12,60.24 -15.47,90.31 -4.22,-20.13 -8.39,-40.27 -12.67,-60.39 -0.38,-3.31 -5.51,-3.84 -6.37,-0.57 -3,8.12 -5.62,16.39 -8.55,24.54 -6.74,-0.01 -13.48,-0.03 -20.22,0.01 -3.65,-5.35 -3.36,-15.7 -10.32,-17.17 -5.5,5.83 -6.43,15.13 -10.04,22.36 -4.35,-19.54 -8.49,-39.14 -12.82,-58.68 -0.19,-1.77 -1.63,-2.68 -3.12,-3.28 -1.61,0.56 -3.59,1.35 -3.56,3.39 z"
         id="path2422" />
    </g>
  </g>
  <g
     id="#ffffffff"
     transform="matrix(1.0979754,0,0,1.0979754,-89.056789,-55.128847)"
     style="fill:#ffffff">
    <path
       fill="#ffffff"
       opacity="1"
       d="m 350.32,126.15 c -0.03,-2.04 1.95,-2.83 3.56,-3.39 1.49,0.6 2.93,1.51 3.12,3.28 4.33,19.54 8.47,39.14 12.82,58.68 3.61,-7.23 4.54,-16.53 10.04,-22.36 6.96,1.47 6.67,11.82 10.32,17.17 6.74,-0.04 13.48,-0.02 20.22,-0.01 2.93,-8.15 5.55,-16.42 8.55,-24.54 0.86,-3.27 5.99,-2.74 6.37,0.57 4.28,20.12 8.45,40.26 12.67,60.39 5.35,-30.07 10.14,-60.24 15.47,-90.31 0.42,-2.71 3.77,-3.14 5.75,-1.83 5.12,20.2 9.02,40.73 13.58,61.08 3.51,-7.32 4.61,-16.56 10.02,-22.52 6.93,1.45 6.76,11.73 10.26,17.12 19.57,0.07 39.13,0.01 58.7,0.03 -0.96,2.27 -1.87,4.57 -2.71,6.89 -19.42,-0.12 -38.84,0.06 -58.26,-0.09 -4.67,-1.47 -4.54,-7.86 -6.89,-11.55 -3.15,7.63 -5.93,15.41 -9.02,23.06 -1.09,2.87 -5.77,2.41 -6.23,-0.64 -3.92,-17.71 -7.8,-35.44 -11.56,-53.19 -5.33,30.74 -10.27,61.55 -15.78,92.26 -1.89,1.95 -5.76,1.67 -6.19,-1.4 -4.62,-21.99 -9.35,-43.97 -13.75,-66 -2.25,5.42 -3.82,11.09 -5.96,16.55 -12.14,0.46 -32.53,6.84 -34.54,-10.71 -3.06,7.69 -5.87,15.48 -9.02,23.13 -0.92,2.82 -5.51,2.42 -6.14,-0.4 -3.98,-17.56 -7.58,-35.21 -11.59,-52.77 -5.47,29.97 -10.18,60.08 -15.45,90.09 -0.3,3.58 -6.19,3.76 -6.52,0.1 -4.77,-21.91 -9.16,-43.91 -13.88,-65.84 -3.98,5.86 -2.23,19.12 -12.28,17.38 -16.05,-0.03 -32.09,-0.03 -48.14,0.01 -1.06,-2.25 -1.93,-4.59 -2.68,-6.96 17.42,-0.23 34.84,-0.38 52.25,-0.57 2.85,-7.97 5.59,-15.98 8.52,-23.91 0.9,-3.24 5.96,-2.7 6.39,0.57 4.27,20.08 8.33,40.2 12.7,60.25 5.25,-29.85 10.12,-59.76 15.28,-89.62 z"
       id="path2425"
       style="fill:#ffffff" />
  </g>
  <g
     id="#333333ff"
     transform="matrix(1.1004162,0,0,1.1004162,-81.448118,-49.699014)"
     style="fill:#000000">
    <path
       fill="#333333"
       opacity="1"
       d="m 641.25,357.66 c -1.98,-30.79 41.53,-41.07 59.84,-20.8 10.22,11.58 6.8,33.35 -8.93,38.16 17.27,4.54 21.32,27.98 10.45,40.58 -18.87,21.16 -65.27,9.99 -62.27,-22.15 8.39,0.18 16.79,0.07 25.19,0.06 -1.05,6.18 4.13,12.21 10.52,11.12 7.96,-0.15 9.98,-12.1 3.91,-16.19 -4.51,-2.65 -9.98,-2.18 -15,-2.27 0.01,-6.98 0,-13.96 0,-20.95 7.28,1.18 19.07,-1.01 16.49,-11.05 -1.71,-9.97 -16.5,-5.91 -14.96,3.53 -8.41,-0.07 -16.83,0 -25.24,-0.04 z"
       id="path2428"
       style="fill:#000000" />
    <path
       fill="#333333"
       opacity="1"
       d="m 517.79,328.95 c 21.33,0.08 42.66,0.07 63.98,0.01 -0.69,8.2 1.86,17.08 -2.26,24.64 -9.79,23.91 -19.65,47.8 -29.42,71.72 -8.88,0.02 -17.77,-0.01 -26.65,0.03 10.62,-24.73 21.34,-49.41 31.9,-74.16 -12.51,0.01 -25.03,0.01 -37.54,0 -0.02,-7.41 0,-14.82 -0.01,-22.24 z"
       id="path2430"
       style="fill:#000000" />
    <path
       fill="#333333"
       opacity="1"
       d="m 586.28,353.06 c 0.09,-8.13 -0.06,-16.26 0.07,-24.38 13.57,0.11 27.15,0.01 40.72,0.05 -0.01,32.2 -0.01,64.4 0,96.59 -9.09,0.01 -18.17,0.01 -27.25,0 0,-24.05 -0.03,-48.11 0.02,-72.17 -4.52,-0.03 -9.05,0.09 -13.56,-0.09 z"
       id="path2432"
       style="fill:#000000" />
    <path
       fill="#333333"
       opacity="1"
       d="m 76.85,332.27 c 23.73,1.52 51.59,-5.73 71.15,11.74 18.25,16.43 19.28,47.89 3.08,66.07 -18.72,21.28 -49.3,13.98 -74.21,15.25 -0.04,-31.02 0,-62.04 -0.02,-93.06 m 26.09,22.54 c 0.03,15.9 0.02,31.8 0.01,47.7 9.63,0.18 21.14,0.51 27.9,-7.67 8.67,-10.94 6.99,-30.73 -6.27,-37.39 -6.66,-3.61 -14.39,-2.47 -21.64,-2.64 z"
       id="path2434"
       style="fill:#000000" />
    <path
       fill="#333333"
       opacity="1"
       d="m 202.48,350.67 c 13.55,-1.87 28.67,2.46 37.22,13.6 12.53,16.22 9.89,43.08 -7.4,54.97 -16.13,10.85 -40.77,9.39 -53.85,-5.65 -19.01,-21.27 -5.89,-61.34 24.03,-62.92 m 2.84,22.55 c -14.35,4.31 -11.7,32.47 4.74,30.43 17.13,-2.37 13.54,-35.2 -4.74,-30.43 z"
       id="path2436"
       style="fill:#000000" />
    <path
       fill="#333333"
       opacity="1"
       d="m 352.05,362.01 c 10.17,-14.56 35.33,-16.4 45.43,-0.84 -0.05,-3.33 -0.02,-6.64 -0.05,-9.96 8.68,-0.04 17.37,0 26.05,-0.02 -0.05,24.71 -0.01,49.43 -0.02,74.15 -8.67,-0.02 -17.34,-0.02 -26.01,0 0.01,-3.4 -0.02,-6.8 0.02,-10.19 -9.76,15.73 -35.09,13.98 -45.27,-0.46 -10.86,-15.07 -10.94,-37.56 -0.15,-52.68 m 29.26,11.16 c -14.56,2.7 -14.25,27.68 0.25,30.25 21.06,4.04 20.82,-34.74 -0.25,-30.25 z"
       id="path2438"
       style="fill:#000000" />
    <path
       fill="#333333"
       opacity="1"
       d="m 257.83,351.19 c 8.68,0 17.36,0.03 26.04,-0.02 0.03,3.31 -0.02,6.61 0.08,9.91 10.06,-13.04 32.18,-14.48 43.01,-1.74 13.4,19.09 4.81,44.25 7.25,65.98 -8.62,0.02 -17.23,0 -25.84,0.01 -0.37,-14.8 0.79,-29.72 -0.63,-44.44 -2.06,-11.97 -21.75,-11.64 -23.46,0.39 -0.89,14.64 -0.16,29.38 -0.39,44.06 -8.68,-0.02 -17.37,-0.01 -26.05,-0.01 -0.01,-24.71 0.01,-49.43 -0.01,-74.14 z"
       id="path2440"
       style="fill:#000000" />
    <path
       fill="#333333"
       opacity="1"
       d="m 437.95,351.2 c 8.71,0.01 17.41,-0.03 26.12,0.02 0.01,4.04 -0.04,8.09 0.06,12.14 5.97,-7.03 14.09,-12.93 23.71,-12.94 0.02,9.28 0,18.57 0.01,27.86 -8.4,-0.32 -21.52,-1.11 -23.42,9.78 -0.82,12.38 -0.14,24.85 -0.36,37.26 -8.7,0.02 -17.41,0 -26.12,0.01 0.01,-24.71 0.02,-49.42 0,-74.13 z"
       id="path2442"
       style="fill:#000000" />
    <path
       fill="#333333"
       opacity="1"
       d="m 520.24,457.04 c 3.87,-2.81 7.89,3.67 4.15,6.2 -3.89,3.02 -8.36,-3.79 -4.15,-6.2 z"
       id="path2444"
       style="fill:#000000" />
    <path
       fill="#333333"
       opacity="1"
       d="m 664.35,457.3 c 3.45,-3.27 8.41,2.88 4.65,5.69 -3.48,3.43 -8.69,-2.9 -4.65,-5.69 z"
       id="path2446"
       style="fill:#000000" />
    <path
       fill="#333333"
       opacity="1"
       d="m 497.92,457.63 c 1.83,-0.01 3.66,-0.03 5.5,-0.03 0.02,14.57 0,29.13 0.01,43.7 -1.85,-0.01 -3.68,-0.01 -5.51,-0.01 0,-14.56 0,-29.11 0,-43.66 z"
       id="path2448"
       style="fill:#000000" />
    <path
       fill="#333333"
       opacity="1"
       d="m 566.43,457.61 c 1.79,-0.01 3.59,0 5.39,0 -0.01,14.56 -0.02,29.12 0.01,43.69 -1.81,-0.01 -3.62,-0.01 -5.41,0 -0.01,-2.02 0,-4.03 0.05,-6.03 -4.17,7.31 -14.92,8.52 -21.3,3.48 -8.82,-6.9 -8.25,-23.18 1.93,-28.58 6.39,-3.5 14.82,-1.61 19.32,4.06 0.01,-5.54 0,-11.08 0.01,-16.62 m -13.95,15.89 c -12.72,3.21 -9.08,25.95 4.57,23.38 14.82,-1.69 10.49,-28.01 -4.57,-23.38 z"
       id="path2450"
       style="fill:#000000" />
    <path
       fill="#333333"
       opacity="1"
       d="m 74.03,460.23 c 9.07,0.53 22.63,-3.05 26.92,7.81 4.52,13.36 -11.11,18.46 -21.41,16.1 0.03,5.72 0.01,11.44 0.01,17.16 -1.82,-0.01 -3.65,-0.01 -5.47,-0.01 -0.02,-13.68 0.08,-27.37 -0.05,-41.06 m 5.52,4.48 c 0,4.99 0.01,9.98 -0.01,14.97 5.54,-0.24 14.76,1.83 16.32,-5.61 2.26,-10 -9.66,-10.08 -16.31,-9.36 z"
       id="path2452"
       style="fill:#000000" />
    <path
       fill="#333333"
       opacity="1"
       d="m 410.84,472.93 c -2.57,-16.13 26.01,-18.04 27.27,-2.54 -1.95,0.01 -3.88,0.03 -5.81,0.03 -1.64,-9.07 -18.66,-7.39 -15.71,2.51 4.98,8.12 21.15,4 21.88,16.12 1.22,16.31 -27.34,17.08 -28.16,1.3 1.94,-0.05 3.89,-0.06 5.84,-0.04 0.6,9.75 18.51,8.86 16.67,-1.28 -3.78,-9.37 -20.76,-4.17 -21.98,-16.1 z"
       id="path2454"
       style="fill:#000000" />
    <path
       fill="#333333"
       opacity="1"
       d="m 316.85,460.92 c 1.81,0 3.62,0 5.43,0 0,2.68 0,5.37 -0.01,8.05 2.78,-0.01 5.56,-0.01 8.35,-0.02 0,1.5 0.01,3.01 0.03,4.52 -2.8,-0.02 -5.58,-0.02 -8.37,-0.03 1.75,7.84 -5.44,25.87 8.37,23.32 -0.01,1.54 -0.02,3.09 -0.02,4.64 -18.03,4.03 -13.55,-17.09 -13.77,-27.96 -1.44,0 -2.87,0.01 -4.3,0.02 0.01,-1.51 0.02,-3.02 0.03,-4.52 1.42,0.01 2.84,0.02 4.27,0.04 -0.03,-2.69 -0.03,-5.38 -0.01,-8.06 z"
       id="path2456"
       style="fill:#000000" />
    <path
       fill="#333333"
       opacity="1"
       d="m 640.2,473.93 c 2.2,-3.62 6.24,-5.62 10.44,-5.57 0,1.86 0.01,3.73 0.03,5.6 -15.2,-0.8 -9.33,18.08 -10.41,27.44 -1.83,-0.01 -3.65,-0.01 -5.47,-0.01 -0.04,-10.79 0,-21.58 -0.02,-32.37 1.83,-0.01 3.66,-0.01 5.51,0 -0.03,1.63 -0.04,3.27 -0.08,4.91 z"
       id="path2458"
       style="fill:#000000" />
    <path
       fill="#333333"
       opacity="1"
       d="m 115.3,468.99 c 1.79,-0.02 3.59,-0.04 5.38,-0.05 -0.01,1.69 -0.03,3.39 -0.11,5.09 2.18,-3.68 6.29,-5.79 10.54,-5.63 0.01,1.86 0.01,3.73 0.02,5.61 -15.14,-0.93 -9.42,18.07 -10.45,27.39 -1.8,-0.01 -3.59,0 -5.39,0.01 0.01,-10.81 0,-21.61 0.01,-32.42 z"
       id="path2460"
       style="fill:#000000" />
    <path
       fill="#333333"
       opacity="1"
       d="m 154.01,469.07 c 11.46,-3.83 23.52,7.16 20.79,18.93 -0.98,11.7 -15.91,17.69 -25.33,11.42 -11.26,-6.96 -8.89,-27.43 4.54,-30.35 m 1.55,4.5 c -12.4,3.2 -9.14,26.08 4.5,23.36 14.92,-1.54 10.64,-28.1 -4.5,-23.36 z"
       id="path2462"
       style="fill:#000000" />
    <path
       fill="#333333"
       opacity="1"
       d="m 185.17,468.95 c 2.02,0 4.05,0.01 6.08,0.01 3.31,8.68 6.72,17.32 10.02,26 3.47,-8.55 6.76,-17.16 9.92,-25.82 1.92,-0.14 3.84,-0.2 5.77,-0.22 -6.34,15.88 -13.05,31.62 -19.35,47.52 -1.91,0.07 -3.82,0.08 -5.72,0.11 2.08,-5.2 4.19,-10.38 6.35,-15.55 -4.35,-10.69 -8.71,-21.37 -13.07,-32.05 z"
       id="path2464"
       style="fill:#000000" />
    <path
       fill="#333333"
       opacity="1"
       d="m 231.25,496.78 c -8.18,-9.14 -3.61,-27.44 9.8,-28.18 10.63,-2.06 19.92,8.35 17.56,18.68 -8.63,-0.07 -17.26,0.02 -25.88,-0.04 -0.38,10.51 16.09,14.02 19.68,4.07 1.9,-0.01 3.8,-0.01 5.71,0 -2.68,11.6 -19.62,14.1 -26.87,5.47 m 1.61,-14.02 c 6.79,0.01 13.58,0.01 20.37,0 0.47,-12.66 -20.58,-12.52 -20.37,0 z"
       id="path2466"
       style="fill:#000000" />
    <path
       fill="#333333"
       opacity="1"
       d="m 275.63,472.63 c 7.81,-7.62 23.78,-4.58 26.03,6.87 -1.95,0.01 -3.89,0.02 -5.84,0.01 -4.08,-12.41 -23.25,-4.71 -19.32,7.41 -0.96,10.8 16.23,14.57 19.29,4.04 1.93,-0.02 3.87,-0.03 5.81,-0.01 -2.3,10.59 -16.38,14.1 -24.54,8 -7.94,-6.07 -8.36,-19.34 -1.43,-26.32 z"
       id="path2468"
       style="fill:#000000" />
    <path
       fill="#333333"
       opacity="1"
       d="m 352.36,469.5 c 14,-6.12 27.93,10.49 20.73,23.46 -4.12,9.14 -17.1,11.64 -24.88,5.78 -9.66,-7.27 -7.79,-25.36 4.15,-29.24 m 3.14,4.02 c -12.73,3.02 -9.29,26.44 4.56,23.37 14.59,-1.79 10.37,-27.81 -4.56,-23.37 z"
       id="path2470"
       style="fill:#000000" />
    <path
       fill="#333333"
       opacity="1"
       d="m 462.97,469.05 c 11.41,-3.74 23.39,7.17 20.73,18.9 -1.01,11.98 -16.48,17.91 -25.87,11.14 -10.79,-7.29 -8.14,-27.25 5.14,-30.04 m 1.57,4.5 c -10.34,2.56 -10.61,20.06 -0.5,23.1 18.17,5.58 18.74,-28.01 0.5,-23.1 z"
       id="path2472"
       style="fill:#000000" />
    <path
       fill="#333333"
       opacity="1"
       d="m 519.55,468.95 c 1.78,0 3.58,0 5.38,0.01 0.09,10.8 -0.02,21.61 0.13,32.42 -1.85,0.01 -3.69,0.02 -5.51,0.04 -0.02,-10.82 -0.02,-21.64 0,-32.47 z"
       id="path2474"
       style="fill:#000000" />
    <path
       fill="#333333"
       opacity="1"
       d="m 586.67,479.46 c 2.71,-12.05 20.24,-14.74 27.01,-4.78 0.2,-1.93 -0.08,-3.86 -0.44,-5.74 1.8,0.01 3.63,0.03 5.45,0.07 -0.04,10.81 0.06,21.62 -0.05,32.43 -1.81,-0.03 -3.61,-0.04 -5.4,-0.04 -0.01,-1.83 0,-3.65 0,-5.46 -10.61,14.75 -33.53,-0.49 -26.57,-16.48 m 12.84,-5.94 c -12.97,3.09 -9.27,26.23 4.56,23.38 14.6,-1.79 10.33,-27.75 -4.56,-23.38 z"
       id="path2476"
       style="fill:#000000" />
    <path
       fill="#333333"
       opacity="1"
       d="m 663.83,469.03 c 1.83,-0.05 3.67,-0.08 5.52,-0.1 0.02,10.82 -0.02,21.65 0.02,32.47 -1.85,-0.01 -3.69,-0.01 -5.53,-0.01 -0.01,-10.79 0.01,-21.57 -0.01,-32.36 z"
       id="path2478"
       style="fill:#000000" />
    <path
       fill="#333333"
       opacity="1"
       d="m 693.44,469.61 c 14.19,-6.49 28.5,10.61 20.84,23.72 -4.44,9.15 -17.91,11.33 -25.43,4.8 -8.77,-7.54 -6.8,-24.57 4.59,-28.52 m 3.15,3.99 c -12.79,3.46 -8.52,27.12 5.51,23.19 14.14,-2.76 9.12,-27.93 -5.51,-23.19 z"
       id="path2480"
       style="fill:#000000" />
  </g>
</svg>
