<?xml version="1.0" encoding="UTF-8" ?>
<!DOCTYPE svg PUBLIC "-//W3C//DTD SVG 1.1//EN" "http://www.w3.org/Graphics/SVG/1.1/DTD/svg11.dtd">
<svg width="1351pt" height="760pt" viewBox="0 0 1351 760" version="1.1" xmlns="http://www.w3.org/2000/svg">
<g id="#ffffffff">
<path fill="#ffffff" opacity="1.00" d=" M 572.44 246.68 C 576.38 244.73 581.46 247.65 581.86 252.01 C 590.16 290.95 599.13 330.01 606.93 368.76 C 613.75 355.70 617.60 341.13 623.66 327.68 C 626.25 323.14 633.31 323.97 635.36 328.57 C 639.68 338.56 643.80 348.66 647.98 358.71 C 661.44 359.01 675.22 359.45 688.68 358.64 C 694.73 342.25 700.08 325.56 705.92 309.08 C 708.21 304.66 715.34 304.16 717.54 308.88 C 727.54 348.71 733.93 390.39 744.00 429.79 C 754.93 370.88 764.14 310.33 774.81 250.95 C 776.04 244.48 786.51 244.68 787.62 251.14 C 796.16 290.33 804.83 329.55 813.13 368.79 C 819.53 355.53 823.76 341.17 829.69 327.63 C 832.07 323.33 838.74 323.82 841.02 327.99 C 845.72 338.07 849.48 348.57 854.15 358.65 C 892.96 359.78 932.15 358.01 970.96 359.53 C 969.01 363.80 967.84 368.56 965.67 372.62 C 926.60 372.62 887.48 372.89 848.42 372.48 C 840.01 368.70 840.86 356.85 835.42 350.31 C 828.88 365.24 823.75 380.79 817.52 395.87 C 815.20 400.93 806.68 400.69 805.37 395.01 C 797.24 360.03 790.13 323.77 782.04 289.42 C 771.15 349.49 761.57 410.03 751.04 470.25 C 749.70 476.27 739.87 476.54 738.22 470.55 C 728.85 426.41 719.88 382.09 710.34 337.96 C 705.21 348.75 704.10 362.09 696.97 371.48 C 679.52 374.19 661.11 372.00 643.29 372.59 C 633.80 370.11 635.08 355.89 629.16 350.52 C 622.85 365.48 617.47 381.66 610.96 396.89 C 607.37 402.01 598.94 399.08 598.67 393.01 C 591.34 358.38 583.87 323.66 576.05 289.12 C 565.25 349.54 555.39 410.30 544.93 470.89 C 543.00 476.13 534.42 476.38 532.43 471.11 C 522.90 426.81 513.92 382.37 504.39 338.11 C 498.18 348.60 498.79 363.69 489.87 371.99 C 454.55 373.53 418.86 372.34 383.42 372.58 C 381.49 368.16 379.36 363.54 378.47 358.78 C 413.31 358.19 448.18 358.47 483.00 357.48 C 488.23 341.35 494.30 325.25 499.91 309.18 C 502.26 304.03 510.39 304.43 512.15 309.84 C 521.11 349.99 528.55 390.55 537.98 430.53 C 548.75 371.23 558.24 310.52 568.78 250.71 C 569.26 248.87 570.74 247.44 572.44 246.68 Z" />
</g>
<g id="#d90f0fff">
<path fill="#d90f0f" opacity="1.00" d=" M 517.44 101.60 C 579.22 93.58 638.08 130.19 673.33 178.83 C 674.23 180.91 676.04 178.74 676.71 177.65 C 704.16 141.05 743.40 111.29 789.10 102.84 C 863.77 90.81 946.12 134.51 973.63 206.01 C 993.00 254.84 987.86 310.28 971.71 358.77 C 1087.16 358.95 1202.62 358.68 1318.07 358.91 C 1319.72 362.57 1322.15 375.19 1313.99 372.69 C 1197.99 372.77 1081.97 372.50 965.99 372.83 C 949.40 412.61 922.72 448.79 888.48 475.49 C 819.07 535.44 750.04 595.80 681.17 656.36 C 677.43 659.59 671.49 659.53 667.82 656.20 C 594.13 591.48 520.36 526.83 445.97 462.88 C 418.51 438.13 397.54 406.74 383.23 372.76 C 265.40 372.46 147.55 372.98 29.73 372.51 C 31.06 368.00 26.16 357.71 33.99 358.79 C 148.61 358.80 263.24 358.93 377.85 358.73 C 359.24 305.58 355.98 244.20 381.52 192.70 C 406.85 141.23 461.56 108.52 517.44 101.60 M 572.44 246.68 C 570.74 247.44 569.26 248.87 568.78 250.71 C 558.24 310.52 548.75 371.23 537.98 430.53 C 528.55 390.55 521.11 349.99 512.15 309.84 C 510.39 304.43 502.26 304.03 499.91 309.18 C 494.30 325.25 488.23 341.35 483.00 357.48 C 448.18 358.47 413.31 358.19 378.47 358.78 C 379.36 363.54 381.49 368.16 383.42 372.58 C 418.86 372.34 454.55 373.53 489.87 371.99 C 498.79 363.69 498.18 348.60 504.39 338.11 C 513.92 382.37 522.90 426.81 532.43 471.11 C 534.42 476.38 543.00 476.13 544.93 470.89 C 555.39 410.30 565.25 349.54 576.05 289.12 C 583.87 323.66 591.34 358.38 598.67 393.01 C 598.94 399.08 607.37 402.01 610.96 396.89 C 617.47 381.66 622.85 365.48 629.16 350.52 C 635.08 355.89 633.80 370.11 643.29 372.59 C 661.11 372.00 679.52 374.19 696.97 371.48 C 704.10 362.09 705.21 348.75 710.34 337.96 C 719.88 382.09 728.85 426.41 738.22 470.55 C 739.87 476.54 749.70 476.27 751.04 470.25 C 761.57 410.03 771.15 349.49 782.04 289.42 C 790.13 323.77 797.24 360.03 805.37 395.01 C 806.68 400.69 815.20 400.93 817.52 395.87 C 823.75 380.79 828.88 365.24 835.42 350.31 C 840.86 356.85 840.01 368.70 848.42 372.48 C 887.48 372.89 926.60 372.62 965.67 372.62 C 967.84 368.56 969.01 363.80 970.96 359.53 C 932.15 358.01 892.96 359.78 854.15 358.65 C 849.48 348.57 845.72 338.07 841.02 327.99 C 838.74 323.82 832.07 323.33 829.69 327.63 C 823.76 341.17 819.53 355.53 813.13 368.79 C 804.83 329.55 796.16 290.33 787.62 251.14 C 786.51 244.68 776.04 244.48 774.81 250.95 C 764.14 310.33 754.93 370.88 744.00 429.79 C 733.93 390.39 727.54 348.71 717.54 308.88 C 715.34 304.16 708.21 304.66 705.92 309.08 C 700.08 325.56 694.73 342.25 688.68 358.64 C 675.22 359.45 661.44 359.01 647.98 358.71 C 643.80 348.66 639.68 338.56 635.36 328.57 C 633.31 323.97 626.25 323.14 623.66 327.68 C 617.60 341.13 613.75 355.70 606.93 368.76 C 599.13 330.01 590.16 290.95 581.86 252.01 C 581.46 247.65 576.38 244.73 572.44 246.68 Z" />
</g>
</svg>
