<?xml version="1.0" encoding="UTF-8" ?>
<!DOCTYPE svg PUBLIC "-//W3C//DTD SVG 1.1//EN" "http://www.w3.org/Graphics/SVG/1.1/DTD/svg11.dtd">
<svg width="1117pt" height="422pt" viewBox="0 0 1117 422" version="1.1" xmlns="http://www.w3.org/2000/svg">
<g id="#ffffffff">
<path fill="#ffffff" opacity="1.00" d=" M 256.77 184.12 C 261.49 184.07 261.92 189.32 262.55 192.85 C 265.74 205.95 268.18 219.24 271.46 232.35 C 273.76 227.34 275.91 222.27 277.97 217.17 C 278.82 216.92 280.50 216.42 281.35 216.17 C 283.58 220.49 285.84 224.81 287.79 229.27 C 292.87 229.35 297.95 229.21 303.02 228.99 C 306.36 222.41 308.66 215.39 310.80 208.35 C 312.36 208.49 313.92 208.64 315.48 208.80 C 317.76 225.40 321.64 241.74 325.57 258.00 C 330.59 233.93 332.44 209.29 338.46 185.44 C 339.42 185.45 341.36 185.48 342.32 185.49 C 345.83 201.12 348.67 216.92 353.29 232.28 C 355.74 227.12 357.24 221.56 360.00 216.55 C 360.75 216.52 362.24 216.46 362.98 216.43 C 365.74 220.45 367.45 225.03 369.64 229.36 C 384.36 229.24 399.08 229.19 413.80 229.40 C 413.74 230.38 413.62 232.32 413.56 233.30 C 398.24 236.24 381.50 233.72 365.62 234.59 C 364.25 232.28 362.83 230.01 361.30 227.81 C 357.93 233.81 357.28 242.07 351.07 246.00 C 346.25 231.64 344.32 216.45 340.47 201.79 C 338.52 214.44 337.05 227.86 334.51 239.97 C 333.33 251.85 330.45 263.63 327.12 275.11 C 326.38 274.91 324.90 274.51 324.16 274.31 C 319.23 257.47 316.69 239.55 312.17 222.42 C 310.41 226.38 308.74 230.39 307.16 234.42 C 299.44 234.61 291.72 234.71 284.01 234.37 C 282.77 231.56 281.52 228.76 280.31 225.94 C 277.85 232.00 275.20 237.99 272.76 244.06 C 271.38 244.25 270.01 244.49 268.65 244.77 C 264.76 230.87 263.45 216.30 258.86 202.65 C 254.98 226.71 250.51 250.67 246.56 274.71 C 245.73 274.86 244.90 275.01 244.08 275.16 C 236.17 258.68 236.30 238.62 230.50 221.00 C 228.97 225.58 227.54 230.20 225.92 234.75 C 211.88 235.62 197.79 234.46 183.77 235.33 C 183.08 234.57 182.39 233.80 181.70 233.05 C 181.48 231.77 181.26 230.50 181.05 229.24 C 194.84 229.12 208.63 228.52 222.43 228.85 C 224.55 221.94 226.86 215.07 229.63 208.39 C 230.90 208.44 232.16 208.50 233.44 208.56 C 237.02 224.47 239.73 240.66 244.03 256.35 C 249.50 232.54 251.23 207.94 256.77 184.12 Z" />
</g>
<g id="#333333ff">
<path fill="#333333" opacity="1.00" d=" M 996.06 153.64 C 994.54 126.58 1029.02 116.12 1048.63 129.36 C 1063.32 138.54 1062.26 164.28 1045.12 170.13 C 1060.46 174.23 1064.72 194.23 1056.46 206.45 C 1040.01 229.57 992.52 219.27 995.43 187.66 C 1003.28 187.53 1011.12 187.53 1018.97 187.60 C 1017.53 197.38 1032.93 202.71 1035.96 192.78 C 1039.39 182.20 1026.81 179.33 1019.04 180.32 C 1019.03 173.68 1019.01 167.04 1019.14 160.40 C 1024.82 160.60 1034.96 161.35 1034.51 153.02 C 1035.96 146.17 1028.86 143.31 1023.33 145.14 C 1022.12 147.90 1021.11 150.74 1020.31 153.64 C 1012.22 153.65 1004.14 153.63 996.06 153.64 Z" />
<path fill="#333333" opacity="1.00" d=" M 879.11 126.04 C 899.39 126.06 919.66 126.01 939.93 126.06 C 939.50 133.96 941.33 142.35 937.86 149.79 C 928.31 172.38 919.20 195.16 909.88 217.84 C 901.40 217.73 892.93 218.02 884.47 217.58 C 894.42 194.22 904.58 170.95 914.63 147.63 C 902.81 146.97 890.97 147.62 879.15 147.23 C 879.20 140.17 879.21 133.10 879.11 126.04 Z" />
<path fill="#333333" opacity="1.00" d=" M 944.05 125.92 C 956.96 125.79 969.87 125.73 982.79 125.96 C 982.72 156.58 982.71 187.21 982.80 217.83 C 974.09 217.71 965.37 218.06 956.67 217.54 C 957.01 194.76 956.69 171.97 956.84 149.19 C 952.57 149.20 948.30 149.18 944.04 149.10 C 944.06 141.38 944.05 133.65 944.05 125.92 Z" />
<path fill="#333333" opacity="1.00" d=" M 458.66 129.51 C 483.36 130.19 514.68 123.18 531.88 146.12 C 544.41 163.59 543.20 191.13 526.98 205.96 C 508.58 223.33 481.59 216.38 458.85 217.83 C 458.53 188.39 458.91 158.95 458.66 129.51 M 483.75 150.72 C 483.61 165.78 483.59 180.85 483.76 195.92 C 490.83 195.71 498.55 196.83 504.92 193.02 C 518.67 185.37 518.99 162.59 505.83 154.19 C 499.26 150.07 491.18 150.59 483.75 150.72 Z" />
<path fill="#333333" opacity="1.00" d=" M 578.40 146.66 C 592.36 144.74 608.23 149.77 615.87 162.25 C 626.08 178.17 622.49 202.65 605.82 212.86 C 589.26 223.00 563.81 220.23 552.94 203.04 C 538.61 182.01 551.93 148.47 578.40 146.66 M 580.49 168.56 C 567.72 173.47 570.65 199.04 585.88 197.18 C 602.58 194.63 598.25 162.72 580.49 168.56 Z" />
<path fill="#333333" opacity="1.00" d=" M 722.64 155.66 C 733.21 143.23 754.33 143.20 764.56 156.11 C 764.47 153.25 764.43 150.38 764.41 147.52 C 772.69 147.22 780.99 147.22 789.28 147.51 C 789.00 170.95 789.34 194.40 789.10 217.84 C 780.95 217.79 772.81 217.80 764.66 217.85 C 764.55 214.88 764.50 211.91 764.51 208.94 C 754.00 222.56 731.17 221.49 721.22 207.81 C 710.36 192.79 710.81 170.02 722.64 155.66 M 747.49 168.66 C 733.04 173.18 737.71 200.20 753.79 196.96 C 771.22 194.06 765.56 162.41 747.49 168.66 Z" />
<path fill="#333333" opacity="1.00" d=" M 631.19 147.26 C 639.41 147.38 647.63 147.39 655.85 147.24 C 655.94 150.23 656.02 153.22 656.09 156.21 C 666.02 144.12 686.59 143.13 697.04 154.97 C 709.82 173.15 701.66 197.15 703.94 217.85 C 695.70 217.78 687.46 217.81 679.23 217.82 C 678.90 203.74 680.23 189.51 678.56 175.52 C 676.70 164.44 658.64 164.35 656.52 175.27 C 655.20 189.39 656.36 203.67 655.94 217.85 C 647.68 217.79 639.43 217.80 631.17 217.83 C 631.22 194.31 631.18 170.78 631.19 147.26 Z" />
<path fill="#333333" opacity="1.00" d=" M 802.57 147.52 C 810.92 147.15 819.28 147.43 827.64 147.28 C 827.62 150.95 827.65 154.62 827.77 158.30 C 833.73 152.00 841.11 146.43 850.22 146.52 C 850.48 155.30 850.42 164.09 850.25 172.87 C 841.51 172.12 827.34 173.05 827.66 184.95 C 827.48 195.89 827.56 206.85 827.71 217.79 C 819.39 217.82 811.08 217.78 802.76 217.84 C 802.43 194.40 802.80 170.96 802.57 147.52 Z" />
<path fill="#333333" opacity="1.00" d=" M 879.55 249.21 C 881.27 248.75 883.00 248.33 884.75 247.96 C 886.82 250.03 886.54 252.86 884.73 254.98 C 883.02 254.59 881.33 254.19 879.65 253.78 C 879.62 252.64 879.57 250.35 879.55 249.21 Z" />
<path fill="#333333" opacity="1.00" d=" M 1019.37 248.26 C 1023.88 245.90 1026.10 253.84 1021.81 254.86 C 1017.96 256.06 1015.87 249.98 1019.37 248.26 Z" />
<path fill="#333333" opacity="1.00" d=" M 860.25 249.23 C 861.86 249.21 863.48 249.19 865.11 249.18 C 865.51 262.89 865.13 276.60 865.33 290.32 C 863.66 290.50 862.00 290.67 860.36 290.86 C 860.26 276.98 860.46 263.10 860.25 249.23 Z" />
<path fill="#333333" opacity="1.00" d=" M 925.34 249.23 C 927.13 249.22 928.93 249.21 930.75 249.20 C 930.60 263.04 930.93 276.88 930.56 290.72 C 928.87 290.55 927.20 290.38 925.54 290.21 C 925.61 288.52 925.71 286.85 925.82 285.17 C 921.67 290.51 914.30 292.53 908.06 289.83 C 896.58 284.69 896.64 265.16 908.45 260.43 C 914.27 257.94 920.64 260.19 925.31 263.96 C 925.41 259.05 925.44 254.14 925.34 249.23 M 911.47 264.36 C 899.89 268.44 904.08 289.17 916.95 286.39 C 931.44 284.40 925.84 258.49 911.47 264.36 Z" />
<path fill="#333333" opacity="1.00" d=" M 456.27 251.32 C 465.37 251.28 481.18 249.15 482.15 262.01 C 483.53 273.69 469.71 275.45 461.19 274.20 C 461.20 279.58 461.20 284.95 461.25 290.33 C 459.61 290.50 457.98 290.68 456.35 290.86 C 456.24 277.68 456.40 264.50 456.27 251.32 M 461.22 255.31 C 461.22 260.02 461.22 264.72 461.13 269.43 C 469.77 272.04 481.60 267.79 475.84 257.09 C 471.11 255.58 466.15 255.25 461.22 255.31 Z" />
<path fill="#333333" opacity="1.00" d=" M 777.03 263.00 C 775.15 248.12 801.40 246.64 802.75 260.95 C 800.96 260.90 799.19 260.85 797.42 260.77 C 795.15 253.01 780.86 253.79 782.07 262.72 C 785.99 271.38 802.77 267.10 803.00 278.92 C 804.09 294.16 778.51 294.95 776.31 280.79 C 777.99 280.58 779.69 280.39 781.40 280.22 C 783.31 288.42 797.67 289.11 798.14 279.98 C 796.11 269.44 777.25 275.20 777.03 263.00 Z" />
<path fill="#333333" opacity="1.00" d=" M 687.85 252.04 C 689.47 252.05 691.11 252.08 692.75 252.10 C 692.73 254.55 692.73 257.01 692.75 259.47 C 695.39 259.50 698.04 259.50 700.70 259.45 C 700.72 260.90 700.76 262.34 700.80 263.79 C 698.12 263.87 695.44 263.92 692.77 263.98 C 693.13 271.48 691.07 279.51 694.48 286.55 C 696.57 286.41 698.68 286.29 700.80 286.18 C 700.77 287.72 700.75 289.27 700.74 290.81 C 683.91 294.26 687.75 274.47 687.77 264.15 C 686.48 264.04 685.20 263.94 683.92 263.85 C 683.90 262.55 683.88 261.26 683.88 259.97 C 685.15 259.89 686.44 259.82 687.73 259.75 C 687.75 257.18 687.79 254.61 687.85 252.04 Z" />
<path fill="#333333" opacity="1.00" d=" M 995.46 263.88 C 998.37 261.38 1001.84 259.71 1005.56 258.80 C 1005.63 260.65 1005.71 262.50 1005.78 264.35 C 991.07 263.97 996.99 281.68 995.74 290.87 C 994.03 290.68 992.32 290.50 990.63 290.31 C 990.69 280.17 990.60 270.02 990.70 259.88 C 992.29 259.88 993.89 259.90 995.51 259.92 C 995.49 261.23 995.47 262.55 995.46 263.88 Z" />
<path fill="#333333" opacity="1.00" d=" M 495.38 290.83 C 495.48 280.44 495.27 270.04 495.52 259.65 C 497.12 259.75 498.73 259.86 500.34 259.98 C 500.34 261.29 500.35 262.60 500.36 263.92 C 503.09 261.36 506.48 259.68 510.22 259.22 C 510.22 260.81 510.21 262.40 510.19 263.99 C 496.17 264.68 501.21 281.11 500.45 290.32 C 498.76 290.49 497.06 290.66 495.38 290.83 Z" />
<path fill="#333333" opacity="1.00" d=" M 530.46 260.49 C 541.95 255.28 555.50 266.55 551.92 278.80 C 550.15 289.59 536.21 294.42 527.56 288.42 C 517.80 282.01 519.28 264.59 530.46 260.49 M 532.47 264.52 C 520.90 269.16 526.71 290.90 539.79 286.06 C 553.22 282.26 546.27 258.17 532.47 264.52 Z" />
<path fill="#333333" opacity="1.00" d=" M 562.45 260.04 C 564.25 260.05 566.06 260.06 567.88 260.09 C 570.91 268.44 574.13 276.72 577.46 284.95 C 580.30 276.44 583.67 268.11 586.86 259.72 C 588.58 259.85 590.30 259.98 592.04 260.13 C 585.91 275.01 579.68 289.85 573.76 304.81 C 572.06 304.81 570.35 304.80 568.66 304.79 C 570.42 299.86 572.31 294.98 574.29 290.13 C 570.40 280.08 565.78 270.30 562.45 260.04 Z" />
<path fill="#333333" opacity="1.00" d=" M 609.98 261.01 C 620.80 255.06 634.69 264.55 632.16 276.93 C 623.70 277.04 615.25 276.77 606.80 277.20 C 607.92 286.97 621.98 290.70 626.32 281.19 C 628.08 281.18 629.85 281.19 631.62 281.23 C 628.85 290.56 616.98 293.61 609.12 288.85 C 599.62 282.77 599.73 266.28 609.98 261.01 M 607.31 272.86 C 614.01 273.11 620.72 273.11 627.42 272.88 C 626.61 260.89 608.10 260.81 607.31 272.86 Z" />
<path fill="#333333" opacity="1.00" d=" M 651.03 261.11 C 659.25 256.71 670.17 260.63 673.10 269.63 C 671.26 269.62 669.43 269.60 667.60 269.57 C 662.18 257.60 644.60 266.03 648.77 277.97 C 649.14 287.76 663.87 290.09 667.35 281.00 C 669.08 280.98 670.82 280.98 672.58 281.00 C 670.34 288.82 661.84 292.66 654.25 290.54 C 641.28 287.66 639.66 267.04 651.03 261.11 Z" />
<path fill="#333333" opacity="1.00" d=" M 721.36 260.33 C 731.63 256.08 744.26 264.62 742.60 276.02 C 743.21 287.89 728.57 294.87 718.96 289.04 C 708.37 282.94 709.45 264.25 721.36 260.33 M 723.42 264.35 C 710.84 268.85 717.20 291.30 730.73 285.92 C 743.35 281.63 736.96 258.78 723.42 264.35 Z" />
<path fill="#333333" opacity="1.00" d=" M 825.49 260.38 C 834.86 256.49 847.23 263.33 846.76 274.02 C 848.17 284.88 836.77 293.99 826.43 290.42 C 812.78 287.05 812.08 264.61 825.49 260.38 M 827.48 264.39 C 816.34 268.40 820.09 289.39 832.95 286.37 C 847.45 284.43 842.01 258.21 827.48 264.39 Z" />
<path fill="#333333" opacity="1.00" d=" M 880.64 259.97 C 882.26 259.85 883.89 259.73 885.53 259.61 C 885.83 270.02 885.65 280.44 885.66 290.85 C 883.96 290.67 882.27 290.50 880.59 290.33 C 880.62 280.21 880.55 270.09 880.64 259.97 Z" />
<path fill="#333333" opacity="1.00" d=" M 944.80 269.60 C 947.67 258.70 963.34 255.81 970.05 264.81 C 970.02 263.16 970.00 261.52 970.00 259.89 C 971.73 259.87 973.48 259.87 975.23 259.87 C 975.50 270.02 975.29 280.16 975.38 290.31 C 973.65 290.50 971.93 290.68 970.23 290.88 C 970.12 288.98 970.04 287.10 969.99 285.21 C 960.05 299.55 938.16 284.79 944.80 269.60 M 955.46 264.50 C 944.42 269.20 949.26 289.59 961.97 286.32 C 976.30 283.78 969.78 257.89 955.46 264.50 Z" />
<path fill="#333333" opacity="1.00" d=" M 1018.37 290.84 C 1018.46 280.44 1018.27 270.03 1018.50 259.63 C 1020.11 259.74 1021.72 259.86 1023.35 259.97 C 1023.46 270.09 1023.38 280.20 1023.43 290.32 C 1021.73 290.49 1020.04 290.66 1018.37 290.84 Z" />
<path fill="#333333" opacity="1.00" d=" M 1046.48 260.38 C 1058.26 255.26 1071.36 267.38 1067.32 279.53 C 1065.07 290.25 1050.49 294.65 1042.30 287.79 C 1033.25 280.85 1035.32 263.99 1046.48 260.38 M 1048.47 264.36 C 1035.82 268.81 1042.26 291.27 1055.73 285.94 C 1068.28 281.57 1061.97 258.85 1048.47 264.36 Z" />
</g>
<g id="#da0e0fff">
<path fill="#da0e0f" opacity="1.00" d=" M 176.50 178.22 C 183.95 144.80 220.50 122.24 253.75 128.39 C 272.05 131.60 286.40 144.33 298.10 157.95 C 307.78 147.15 318.36 136.62 332.14 131.24 C 363.43 119.29 401.56 136.32 415.59 166.26 C 423.70 186.21 422.79 209.04 415.79 229.18 C 633.46 229.51 851.15 229.29 1068.82 229.29 C 1068.81 231.11 1068.82 232.93 1068.84 234.76 C 850.68 234.59 632.49 235.29 414.34 234.41 C 405.43 252.82 392.79 269.13 376.08 281.13 C 349.88 303.35 324.86 327.08 298.10 348.53 C 275.42 330.82 254.85 310.55 232.56 292.35 C 215.02 276.28 194.08 262.23 184.73 239.36 C 184.25 235.61 180.27 234.92 177.09 234.75 C 132.43 234.85 87.77 234.77 43.11 234.80 C 43.11 232.95 43.12 231.11 43.12 229.27 C 88.85 229.28 134.58 229.56 180.30 229.13 C 174.70 212.84 173.54 195.14 176.50 178.22 M 256.77 184.12 C 251.23 207.94 249.50 232.54 244.03 256.35 C 239.73 240.66 237.02 224.47 233.44 208.56 C 232.16 208.50 230.90 208.44 229.63 208.39 C 226.86 215.07 224.55 221.94 222.43 228.85 C 208.63 228.52 194.84 229.12 181.05 229.24 C 181.26 230.50 181.48 231.77 181.70 233.05 C 182.39 233.80 183.08 234.57 183.77 235.33 C 197.79 234.46 211.88 235.62 225.92 234.75 C 227.54 230.20 228.97 225.58 230.50 221.00 C 236.30 238.62 236.17 258.68 244.08 275.16 C 244.90 275.01 245.73 274.86 246.56 274.71 C 250.51 250.67 254.98 226.71 258.86 202.65 C 263.45 216.30 264.76 230.87 268.65 244.77 C 270.01 244.49 271.38 244.25 272.76 244.06 C 275.20 237.99 277.85 232.00 280.31 225.94 C 281.52 228.76 282.77 231.56 284.01 234.37 C 291.72 234.71 299.44 234.61 307.16 234.42 C 308.74 230.39 310.41 226.38 312.17 222.42 C 316.69 239.55 319.23 257.47 324.16 274.31 C 324.90 274.51 326.38 274.91 327.12 275.11 C 330.45 263.63 333.33 251.85 334.51 239.97 C 337.05 227.86 338.52 214.44 340.47 201.79 C 344.32 216.45 346.25 231.64 351.07 246.00 C 357.28 242.07 357.93 233.81 361.30 227.81 C 362.83 230.01 364.25 232.28 365.62 234.59 C 381.50 233.72 398.24 236.24 413.56 233.30 C 413.62 232.32 413.74 230.38 413.80 229.40 C 399.08 229.19 384.36 229.24 369.64 229.36 C 367.45 225.03 365.74 220.45 362.98 216.43 C 362.24 216.46 360.75 216.52 360.00 216.55 C 357.24 221.56 355.74 227.12 353.29 232.28 C 348.67 216.92 345.83 201.12 342.32 185.49 C 341.36 185.48 339.42 185.45 338.46 185.44 C 332.44 209.29 330.59 233.93 325.57 258.00 C 321.64 241.74 317.76 225.40 315.48 208.80 C 313.92 208.64 312.36 208.49 310.80 208.35 C 308.66 215.39 306.36 222.41 303.02 228.99 C 297.95 229.21 292.87 229.35 287.79 229.27 C 285.84 224.81 283.58 220.49 281.35 216.17 C 280.50 216.42 278.82 216.92 277.97 217.17 C 275.91 222.27 273.76 227.34 271.46 232.35 C 268.18 219.24 265.74 205.95 262.55 192.85 C 261.92 189.32 261.49 184.07 256.77 184.12 Z" />
</g>
</svg>
