<?xml version="1.0" encoding="UTF-8" standalone="no"?>
<svg
   width="446.93042pt"
   height="273.72647pt"
   viewBox="0 0 446.93043 273.72647"
   version="1.1"
   id="svg44"
   sodipodi:docname="brand 713 alt.svg"
   inkscape:version="1.2.2 (732a01da63, 2022-12-09)"
   xmlns:inkscape="http://www.inkscape.org/namespaces/inkscape"
   xmlns:sodipodi="http://sodipodi.sourceforge.net/DTD/sodipodi-0.dtd"
   xmlns="http://www.w3.org/2000/svg"
   xmlns:svg="http://www.w3.org/2000/svg">
  <defs
     id="defs48" />
  <sodipodi:namedview
     id="namedview46"
     pagecolor="#acacac"
     bordercolor="#000000"
     borderopacity="0.25"
     inkscape:showpageshadow="2"
     inkscape:pageopacity="0"
     inkscape:pagecheckerboard="0"
     inkscape:deskcolor="#d1d1d1"
     inkscape:document-units="pt"
     showgrid="false"
     inkscape:zoom="1.5586493"
     inkscape:cx="420.23565"
     inkscape:cy="259.19878"
     inkscape:window-width="1920"
     inkscape:window-height="1057"
     inkscape:window-x="-8"
     inkscape:window-y="-8"
     inkscape:window-maximized="1"
     inkscape:current-layer="svg44" />
  <g
     id="#010101ff"
     transform="matrix(1.0850453,0,0,1.0850453,10.672143,-89.740404)"
     style="fill:#ffffff">
    <path
       fill="#010101"
       opacity="1"
       d="m 296.30307,82.710487 41.77206,0.05686 63.98944,-0.06075 -0.055,122.201053 c -10.45003,6.62 -21.30524,13.77087 -31.79524,20.31087 -15.54,0.48 -31.08,-0.24 -46.64,0.03 -5.81,17.82 -13.18,35.08 -22.72,51.24 18.03,1.8 37.67,-3.47 54.57,3.51 -12.13,2.81 -24.43,5.79 -36.99,5.05 -10.52,0.26 -24.23,-3.25 -30.78,7.63 -20.49,19.58 -50.09,28.67 -78.08,28.51 -10.66,0.96 -18.13,-8.15 -23.98,-15.74 0.37,7.69 0.84,15.38 1.94,23.01 -11.03,1.81 -21.91,4.37 -32.87,6.52 -9.95,-15.47 -19.96,-31.66 -35.77,-41.88 -0.41,10 -0.45,20.03 -1.93,29.95 -10.52,0.64 -20.939996,2.47 -31.489996,2.7 -9.16,-11.72 -17.01,-24.4 -26.29,-36.01 -8.24,-10.45 -22.12,-5.68 -33.77,-6.43 -4.45,0.24 -14.2,2.18 -11.91,-5.36 12.7,-0.89 25.41,-1.58 38.09,-2.71 1.66,-12.19 3.39,-24.38 5.23,-36.54 -4.35,-2.73 -8.71,-5.45 -12.96,-8.31 2.61,-6.83 -1.04,-18.66 7.75,-20.54 -9.58,-3.07 -19.22,-5.93 -28.79,-9.03 -0.93,-9.07 -11.49,-20.41 -5.38,-27.81 -4.98,-16.69 -22.23,-29.99 -27.28,-47.48 10.02000002,-11.31 22.1,-20.2 36.33,-25.48 30.63,14.26 61.33,28.41 91.939996,42.73 15.13,-8.93 30.1,-18.18 42.04,-31.29 16.5,-5.68 32.92,2.9 48.68,8.65 -2.82,6.63 -6.81,13.94 -8.69,20.28 21.78,-5.2 44.62,-11.9 66.78,-17.74 -0.27,-6.85 0.65,-13.69 0.05,-20.53 9.55,-6.379996 19.35874,-13.238036 29.00874,-19.438033 z"
       id="path36"
       style="fill:#ffffff"
       sodipodi:nodetypes="ccccccccccccccccccccccccccccccccccc" />
    <path
       fill="#010101"
       opacity="1"
       d="m 356.97433,132.77852 c 8.77,-0.24 17.53,-0.13 26.32,-0.09 0.41,21.89 0.3,43.8 0.06,65.68 -18.12,0.11 -36.23,0.43 -54.35,0.3 0.32,-10.94 -0.8,-22.54 0.55,-33.07 8.81,0.03 17.62,-0.04 26.43,0.03 0.66,-10.76 -1.31,-22.77 0.99,-32.85 z"
       id="path38"
       style="fill:#000000" />
  </g>
  <g
     id="#fb0202ff"
     transform="matrix(1.0850453,0,0,1.0850453,11.110304,-89.936744)">
    <path
       fill="#fb0202"
       opacity="1"
       d="M 0,0 H 0.14 C 0.1,0.03 0.03,0.1 0,0.13 Z"
       id="path26" />
    <path
       fill="#fb0202"
       opacity="1"
       d="m 32.500516,121.13947 c 1.05,-0.78 2.24,-1.05 3.55,-0.82 30.479998,14.48 60.279998,33.46 93.709994,40.74 -4.13,20.19 -13.65,39.63 -15.73,60.47 -1.95,3.8 13.13,0.83 8.26,8.72 -3.68,-0.32 -7.37,-0.61 -11.06,-0.35 -6.46,21.99 -2.43,47.27 -5.19,70.32 -7.879996,-0.36 -11.409996,-12.36 -21.069996,-19.7 0.68,-17.21 0.55,-35.77 6.4,-52.64 3.64,-7.37 -11.15,-1.74 -8.72,-8.62 2.72,-4.03 11.81,3.89 12.03,-3.66 4.04,-18.91 10.839996,-33.6 14.069996,-52.55 -14.269996,-7.16 -28.439996,-15.18 -43.549996,-20.33 6.72,14.91 14.59,29.46 19.44,45.11 -3.84,1.14 -9.32,4.62 -12.46,0.51 -6.71,-1.85 -18.41,4.54 -20.53,-5.63 -1.88,-7.67 5.71,-4 10.16,-4.24 -8.64,-16.52 -16.969998,-33.36 -25.899998,-49.54 -1.24,-2.62 -7.26,-5.14 -3.41,-7.79 z"
       id="path28" />
    <path
       fill="#fb0202"
       opacity="1"
       d="m 185.21051,129.78947 c 6.65,-0.88 2.78,8.24 0.45,12.13 -15.58,50.22 -16.64,103.78 -13.91,155.62 1.04,4.28 -4.04,9.44 -6.88,4.28 -6.52,-8.93 -20.79,-20.63 -14.21,-30.9 4.1,-35.29 9.91,-70.52 9.7,-106.24 -5.94,7.19 -13.14,16.76 -20.86,8.3 -1.44,-7.3 7.69,-8.01 12.35,-10.53 14.95,-6.35 23.41,-20.88 33.36,-32.66 z"
       id="path30" />
    <path
       fill="#fb0202"
       opacity="1"
       d="m 259.62051,137.33947 c 6.45,6.43 -13.73,22.12 -15.65,34.24 16.47,3.67 36.36,3.62 51.62,14.49 15.79,8.3 15.02,28.92 11.82,43.93 -6.68,32.96 -29.47,65.18 -63.28,73.89 -13.43,1.84 -28.67,0.85 -39.98,-7.12 -0.7,-6.56 -5.67,-25.02 5.12,-31.12 5.38,-1.7 11.27,-1.66 16.81,-0.65 0.52,10.96 -6.65,21.63 -4.11,32.72 12.17,0.9 27.91,3.44 36.21,-7.97 21.42,-20.62 29.85,-51.06 28.76,-80.11 0.79,-25.57 -24.74,-31.93 -46.7,-31.4 -9.61,0.73 -18.22,10.02 -27.89,6.72 5.52,-10.53 14.35,-19.38 18.46,-30.54 -4.81,-0.81 -12.19,-2.19 -13.84,4.04 -2.95,6.94 -16.77,2.26 -13.22,-4.14 19.65,-5.92 39.33,-9.03 55.87,-16.98 z"
       id="path32" />
  </g>
  <g
     id="#f7f7f7ff"
     transform="translate(73.183281,106.38708)" />
  <g
     id="#fe6602ff"
     transform="matrix(1.0850453,0,0,1.0850453,10.672143,-89.740404)">
    <path
       fill="#fe6602"
       opacity="1"
       d="m 304.17433,102.23852 c 17.79,-0.04 35.58,-0.17 53.36,0.04 -0.18,10.16 0.63,20.41 -0.56,30.5 -9.08,0.67 -18.21,0.15 -27.31,0.29 -0.24,10.84 -0.05,21.69 -0.11,32.53 -8.44,0.19 -16.88,0.13 -25.31,0.02 -0.21,-21.13 -0.09,-42.26 -0.07,-63.38 z"
       id="path41" />
  </g>
</svg>
