<?xml version="1.0" encoding="UTF-8" standalone="no"?>
<svg
   width="342.03543pt"
   height="306.57486pt"
   viewBox="0 0 342.03543 306.57486"
   version="1.1"
   id="svg2483"
   sodipodi:docname="brand icon.svg"
   inkscape:version="1.2.2 (732a01da63, 2022-12-09)"
   xmlns:inkscape="http://www.inkscape.org/namespaces/inkscape"
   xmlns:sodipodi="http://sodipodi.sourceforge.net/DTD/sodipodi-0.dtd"
   xmlns="http://www.w3.org/2000/svg"
   xmlns:svg="http://www.w3.org/2000/svg">
  <defs
     id="defs2487" />
  <sodipodi:namedview
     id="namedview2485"
     pagecolor="#a6a6a6"
     bordercolor="#000000"
     borderopacity="0.25"
     inkscape:showpageshadow="2"
     inkscape:pageopacity="0"
     inkscape:pagecheckerboard="0"
     inkscape:deskcolor="#d1d1d1"
     inkscape:document-units="pt"
     showgrid="false"
     inkscape:zoom="0.5671875"
     inkscape:cx="581.81818"
     inkscape:cy="230.96419"
     inkscape:window-width="1920"
     inkscape:window-height="1057"
     inkscape:window-x="-8"
     inkscape:window-y="-8"
     inkscape:window-maximized="1"
     inkscape:current-layer="#d90f0fff" />
  <g
     id="g2609"
     transform="matrix(1.0100632,0,0,1.0100632,-199.05907,-0.22637911)">
    <g
       id="#d90f0fff"
       transform="matrix(1.0870364,0,0,1.0870364,-71.404959,-47.603306)">
      <path
         fill="#d90f0f"
         opacity="1"
         d="M 0,0 H 0.14 C 0.1,0.03 0.03,0.09 0,0.11 Z"
         id="path2420" />
      <path
         fill="#d90f0f"
         opacity="1"
         d="m 264.07785,77.528456 c 20.86,-26.08 58.04,-40.2 90.51,-30.01 19.57,6.2 36.07,20 48.02,36.45 17.52,-23.98 45.85,-42.58 76.57,-39.67 31.66,3.14 62.78,23.23 73.61,53.989996 8.95,24.109998 6.61,51.009998 -1.69,74.949998 l -2.56,6.92 c -8.23,18.94 -20.29,36.42 -36.51,49.37 -35.46,30.54 -70.64,61.39 -105.81,92.25 -1.87,1.87 -5.05,1.95 -6.92,0.04 -36.44,-31.9 -72.81,-63.88 -109.55,-95.43 -14.38,-12.49 -25.38,-28.64 -32.63,-46.19 l -2.86,-6.92 c -10.86,-31.1 -11.07,-68.69 9.82,-95.749994 m 85.57,42.409994 c -5.16,29.86 -10.03,59.77 -15.28,89.62 -4.37,-20.05 -8.43,-40.17 -12.7,-60.25 -0.43,-3.27 -5.49,-3.81 -6.39,-0.57 -2.93,7.93 -5.67,15.94 -8.52,23.91 -17.41,0.19 -34.83,0.34 -52.25,0.57 0.75,2.37 1.62,4.71 2.68,6.96 16.05,-0.04 32.09,-0.04 48.14,-0.01 10.05,1.74 8.3,-11.52 12.28,-17.38 4.72,21.93 9.11,43.93 13.88,65.84 0.33,3.66 6.22,3.48 6.52,-0.1 5.27,-30.01 9.98,-60.12 15.45,-90.09 4.01,17.56 7.61,35.21 11.59,52.77 0.63,2.82 5.22,3.22 6.14,0.4 3.15,-7.65 5.96,-15.44 9.02,-23.13 2.01,17.55 22.4,11.17 34.54,10.71 2.14,-5.46 3.71,-11.13 5.96,-16.55 4.4,22.03 9.13,44.01 13.75,66 0.43,3.07 4.3,3.35 6.19,1.4 5.51,-30.71 10.45,-61.52 15.78,-92.26 3.76,17.75 7.64,35.48 11.56,53.19 0.46,3.05 5.14,3.51 6.23,0.64 3.09,-7.65 5.87,-15.43 9.02,-23.06 2.35,3.69 2.22,10.08 6.89,11.55 19.42,0.15 38.84,-0.03 58.26,0.09 0.84,-2.32 1.75,-4.62 2.71,-6.89 -19.57,-0.02 -39.13,0.04 -58.7,-0.03 -3.5,-5.39 -3.33,-15.67 -10.26,-17.12 -5.41,5.96 -6.51,15.2 -10.02,22.52 -4.56,-20.35 -8.46,-40.88 -13.58,-61.08 -1.98,-1.31 -5.33,-0.88 -5.75,1.83 -5.33,30.07 -10.12,60.24 -15.47,90.31 -4.22,-20.13 -8.39,-40.27 -12.67,-60.39 -0.38,-3.31 -5.51,-3.84 -6.37,-0.57 -3,8.12 -5.62,16.39 -8.55,24.54 -6.74,-0.01 -13.48,-0.03 -20.22,0.01 -3.65,-5.35 -3.36,-15.7 -10.32,-17.17 -5.5,5.83 -6.43,15.13 -10.04,22.36 -4.35,-19.54 -8.49,-39.14 -12.82,-58.68 -0.19,-1.77 -1.63,-2.68 -3.12,-3.28 -1.61,0.56 -3.59,1.35 -3.56,3.39 z"
         id="path2422"
         sodipodi:nodetypes="ccccccccccccccccccccccccccccccccccccccccccccccccccccccc" />
    </g>
  </g>
  <g
     id="#ffffffff"
     transform="matrix(1.0979754,0,0,1.0979754,-271.9206,-55.128847)"
     style="fill:#ffffff">
    <path
       fill="#ffffff"
       opacity="1"
       d="m 350.32,126.15 c -0.03,-2.04 1.95,-2.83 3.56,-3.39 1.49,0.6 2.93,1.51 3.12,3.28 4.33,19.54 8.47,39.14 12.82,58.68 3.61,-7.23 4.54,-16.53 10.04,-22.36 6.96,1.47 6.67,11.82 10.32,17.17 6.74,-0.04 13.48,-0.02 20.22,-0.01 2.93,-8.15 5.55,-16.42 8.55,-24.54 0.86,-3.27 5.99,-2.74 6.37,0.57 4.28,20.12 8.45,40.26 12.67,60.39 5.35,-30.07 10.14,-60.24 15.47,-90.31 0.42,-2.71 3.77,-3.14 5.75,-1.83 5.12,20.2 9.02,40.73 13.58,61.08 3.51,-7.32 4.61,-16.56 10.02,-22.52 6.93,1.45 6.76,11.73 10.26,17.12 19.57,0.07 39.13,0.01 58.7,0.03 -0.96,2.27 -1.87,4.57 -2.71,6.89 -19.42,-0.12 -38.84,0.06 -58.26,-0.09 -4.67,-1.47 -4.54,-7.86 -6.89,-11.55 -3.15,7.63 -5.93,15.41 -9.02,23.06 -1.09,2.87 -5.77,2.41 -6.23,-0.64 -3.92,-17.71 -7.8,-35.44 -11.56,-53.19 -5.33,30.74 -10.27,61.55 -15.78,92.26 -1.89,1.95 -5.76,1.67 -6.19,-1.4 -4.62,-21.99 -9.35,-43.97 -13.75,-66 -2.25,5.42 -3.82,11.09 -5.96,16.55 -12.14,0.46 -32.53,6.84 -34.54,-10.71 -3.06,7.69 -5.87,15.48 -9.02,23.13 -0.92,2.82 -5.51,2.42 -6.14,-0.4 -3.98,-17.56 -7.58,-35.21 -11.59,-52.77 -5.47,29.97 -10.18,60.08 -15.45,90.09 -0.3,3.58 -6.19,3.76 -6.52,0.1 -4.77,-21.91 -9.16,-43.91 -13.88,-65.84 -3.98,5.86 -2.23,19.12 -12.28,17.38 -16.05,-0.03 -32.09,-0.03 -48.14,0.01 -1.06,-2.25 -1.93,-4.59 -2.68,-6.96 17.42,-0.23 34.84,-0.38 52.25,-0.57 2.85,-7.97 5.59,-15.98 8.52,-23.91 0.9,-3.24 5.96,-2.7 6.39,0.57 4.27,20.08 8.33,40.2 12.7,60.25 5.25,-29.85 10.12,-59.76 15.28,-89.62 z"
       id="path2425"
       style="fill:#ffffff" />
  </g>
</svg>
